HIERARCHY
ROOT Hips
{
	OFFSET 0.000000 0.000000 0.000000 
	CHANNELS 6 Xposition Yposition Zposition Zrotation Yrotation Xrotation
	JOINT LeftUpLeg
	{
		OFFSET 1.363060 -1.794630 0.839290 
		CHANNELS 3 Zrotation Yrotation Xrotation
		JOINT LeftLeg
		{
			OFFSET 2.448110 -6.726130 0.000000 
			CHANNELS 3 Zrotation Yrotation Xrotation
			JOINT LeftFoot
			{
				OFFSET 2.562200 -7.039590 0.000000 
				CHANNELS 3 Zrotation Yrotation Xrotation
				JOINT LeftToeBase
				{
					OFFSET 0.157640 -0.433110 2.322550 
					CHANNELS 3 Zrotation Yrotation Xrotation
					End Site
					{
						OFFSET 0.000000 0.000000 0.000000 
					}
				}
			}
		}
	}
	JOINT RightUpLeg
	{
		OFFSET -1.305520 -1.794630 0.839290 
		CHANNELS 3 Zrotation Yrotation Xrotation
		JOINT RightLeg
		{
			OFFSET -2.542530 -6.985550 0.000000 
			CHANNELS 3 Zrotation Yrotation Xrotation
			JOINT RightFoot
			{
				OFFSET -2.568260 -7.056230 0.000000 
				CHANNELS 3 Zrotation Yrotation Xrotation
				JOINT RightToeBase
				{
					OFFSET -0.164730 -0.452590 2.363150 
					CHANNELS 3 Zrotation Yrotation Xrotation
					End Site
					{
						OFFSET 0.000000 0.000000 0.000000 
					}
				}
			}
		}
	}
	JOINT Spine
	{
		OFFSET 0.028270 2.035590 -0.193380 
		CHANNELS 3 Zrotation Yrotation Xrotation
		JOINT Spine1
		{
			OFFSET 0.056720 2.048850 -0.042750 
			CHANNELS 3 Zrotation Yrotation Xrotation
			JOINT Neck1
			{
				OFFSET -0.054170 1.746240 0.172020 
				CHANNELS 3 Zrotation Yrotation Xrotation
				JOINT Head
				{
					OFFSET 0.104070 1.761360 -0.123970 
					CHANNELS 3 Zrotation Yrotation Xrotation
					End Site
					{
						OFFSET 0.000000 0.000000 0.000000 
					}
				}
			}
			JOINT LeftArm
			{
				OFFSET 3.362410 1.200890 -0.311210 
				CHANNELS 3 Zrotation Yrotation Xrotation
				JOINT LeftForeArm
				{
					OFFSET 4.983000 -0.000000 -0.000000 
					CHANNELS 3 Zrotation Yrotation Xrotation
					JOINT LeftHand
					{
						OFFSET 3.483560 -0.000000 -0.000000 
						CHANNELS 3 Zrotation Yrotation Xrotation
						JOINT LeftHandIndex1
						{
							OFFSET 0.715260 -0.000000 -0.000000 
							CHANNELS 3 Zrotation Yrotation Xrotation
							End Site
							{
								OFFSET 0.000000 0.000000 0.000000 
							}
						}
					}
				}
			}
			JOINT RightArm
			{
				OFFSET -3.136600 1.374050 -0.404650 
				CHANNELS 3 Zrotation Yrotation Xrotation
				JOINT RightForeArm
				{
					OFFSET -5.241900 -0.000000 -0.000000 
					CHANNELS 3 Zrotation Yrotation Xrotation
					JOINT RightHand
					{
						OFFSET -3.444170 -0.000000 -0.000000 
						CHANNELS 3 Zrotation Yrotation Xrotation
						JOINT RightHandIndex1
						{
							OFFSET -0.622530 -0.000000 -0.000000 
							CHANNELS 3 Zrotation Yrotation Xrotation
							End Site
							{
								OFFSET 0.000000 0.000000 0.000000 
							}
						}
					}
				}
			}
		}
	}
}
MOTION
Frames: 15
Frame Time: 0.041667
-2.606555 17.592171 45.623216 -174.670544 -7.034507 -162.779473 -7.473317 -16.536391 -25.488491 1.870554 12.089342 33.770455 -5.701206 16.997588 -6.500420 0.073300 1.746100 4.804400 22.634603 14.768461 -28.232377 -2.266174 -12.332308 34.297091 5.383881 -16.507145 -1.311110 -0.010500 0.661800 -1.818700 2.954551 1.214393 -7.823769 -0.693377 0.778433 -0.825490 5.330287 -5.344923 22.986081 2.281900 -3.814600 15.540900 -85.701154 2.654361 41.313411 17.356749 -18.700279 -4.503444 -1.307935 1.091546 -7.040178 -7.125000 0.000000 0.000000 84.818122 -2.528671 38.639614 -19.380364 18.781621 -5.231103 2.393576 0.938939 10.863278 7.125000 0.000000 0.000000 
-2.619210 17.591214 45.610029 -174.677651 -6.663650 -162.964668 -7.619595 -16.656860 -25.136263 1.875545 12.074757 33.805023 -5.858884 17.373517 -6.854138 0.074600 1.762300 4.849200 22.593860 14.699855 -28.016084 -2.273118 -12.334829 34.337719 5.288373 -16.281503 -1.176328 -0.009700 0.636300 -1.748600 2.932079 1.363186 -7.629750 -0.727310 0.865856 -0.550548 5.290358 -5.333588 23.029536 2.257700 -3.807600 15.605000 -85.731863 2.473080 41.085393 17.374512 -18.700545 -4.505933 -1.250313 1.101903 -6.956124 -7.125000 0.000000 0.000000 84.734660 -2.431781 38.607306 -19.444358 18.863135 -5.267396 2.392646 0.973943 10.719473 7.125000 0.000000 0.000000 
-2.597941 17.594829 45.652780 -174.769293 -7.646486 -162.483764 -7.381227 -16.512840 -26.073273 1.871912 12.119767 33.730724 -5.530170 16.595323 -5.864198 0.063200 1.622300 4.463000 22.539576 14.860233 -28.654304 -2.280543 -12.352923 34.268961 5.655086 -17.159730 -1.408711 -0.006500 0.518700 -1.425300 2.939477 1.005227 -8.519385 -0.756868 0.617464 -2.156611 5.271503 -5.354675 23.409159 2.224100 -3.868400 15.772900 -85.713645 3.413981 41.003009 17.389147 -18.774973 -4.524239 -1.211266 1.106158 -6.887938 -7.125000 0.000000 0.000000 85.095255 -3.331058 38.516341 -19.756197 19.275673 -5.454304 2.372989 1.193196 9.754507 7.125000 0.000000 0.000000 
-2.604002 17.594510 45.638849 -174.638075 -7.581075 -162.710516 -7.338579 -16.456696 -25.800492 1.878740 12.112251 33.761848 -5.579296 16.703869 -6.052706 0.061500 1.600600 4.403100 22.707572 14.917263 -28.325651 -2.282562 -12.338310 34.278530 5.674213 -17.194731 -1.518195 -0.012200 0.714400 -1.963300 2.994856 1.042810 -8.318023 -0.736783 0.653550 -1.866920 5.281803 -5.358990 23.303600 2.240000 -3.869900 15.680400 -85.751577 3.286861 41.021930 17.392956 -18.776258 -4.530686 -1.233619 1.118575 -6.963747 -7.125000 0.000000 0.000000 84.981669 -3.304771 38.517465 -19.373670 18.785130 -5.222803 2.383890 0.935887 11.290421 7.125000 0.000000 0.000000 
-2.619423 17.592384 45.592375 -174.595734 -7.122620 -163.151131 -7.529478 -16.403933 -25.074958 1.880357 12.082539 33.851056 -5.621581 16.805220 -6.628723 0.081600 1.842900 5.071700 22.797183 14.875538 -27.615778 -2.277888 -12.307253 34.295972 5.577206 -16.939961 -1.616021 -0.015200 0.797300 -2.191100 2.902547 1.290738 -7.992679 -0.803437 0.798819 -1.391002 5.298580 -5.495948 23.161684 2.237500 -3.928000 15.512800 -85.672101 3.316926 41.268594 17.396014 -18.803823 -4.535154 -1.264305 1.100788 -7.012405 -7.125000 0.000000 0.000000 85.081411 -3.305677 38.434340 -19.572561 19.056189 -5.348093 2.380103 1.095873 10.454451 7.125000 0.000000 0.000000 
-2.609851 17.594829 45.632681 -174.719680 -7.506043 -162.630786 -7.435635 -16.505021 -25.799913 1.876123 12.114922 33.781951 -5.580420 16.716359 -6.191977 0.064300 1.636600 4.502300 22.578184 14.931000 -28.343707 -2.277768 -12.335139 34.258075 5.666439 -17.174675 -1.501630 -0.010200 0.652800 -1.793900 3.006483 1.038148 -8.196293 -0.666405 0.665480 -1.617170 5.307098 -5.389333 23.181457 2.271700 -3.882200 15.603800 -85.754130 3.057439 41.015750 17.419052 -18.798445 -4.534203 -1.255833 1.094019 -7.005571 -7.125000 0.000000 0.000000 84.831354 -3.020868 38.791558 -19.589957 19.073611 -5.364600 2.382167 1.104648 10.011791 7.125000 0.000000 0.000000 
-2.624315 17.593553 45.613326 -174.584586 -6.834080 -162.685528 -7.428627 -16.740083 -25.453307 1.875805 12.094172 33.787155 -5.861561 17.388499 -6.866550 0.071200 1.721600 4.736900 22.602643 15.102003 -28.203358 -2.270513 -12.327838 34.263665 5.485516 -16.754619 -1.285436 -0.012800 0.729900 -2.006000 2.985127 1.298628 -8.060387 -0.756535 0.797887 -1.361279 5.313599 -5.304191 23.200409 2.292300 -3.844600 15.665400 -85.786109 2.935571 40.864358 17.425116 -18.794587 -4.537374 -1.259412 1.107622 -7.025960 -7.125000 0.000000 0.000000 84.728672 -2.897813 38.968664 -19.529049 18.999448 -5.335258 2.383274 1.095603 9.802554 7.125000 0.000000 0.000000 
-2.609958 17.595680 45.635127 -174.764607 -7.472460 -162.421952 -7.398880 -16.681259 -25.943650 1.859271 12.107178 33.718801 -5.606193 16.785751 -6.276082 0.065400 1.650500 4.540800 22.428965 15.358704 -28.479916 -2.293200 -12.355565 34.283991 5.767505 -17.419266 -1.619418 -0.009400 0.627300 -1.723900 3.075913 0.977762 -8.168906 -0.538054 0.644477 -1.458083 5.306026 -5.245721 23.168839 2.299900 -3.819800 15.642000 -85.803946 2.790167 40.767275 17.449370 -18.817403 -4.549579 -1.280676 1.113215 -7.065831 -7.125000 0.000000 0.000000 84.653256 -2.821351 39.019498 -19.472377 18.929871 -5.309198 2.385409 1.091117 9.797200 7.125000 0.000000 0.000000 
-2.617721 17.593234 45.612900 -174.756304 -7.482128 -162.659556 -7.476090 -16.741201 -25.552192 1.850478 12.076230 33.713193 -5.578969 16.715583 -6.396546 0.079300 1.816900 4.999900 22.484702 15.342282 -28.108903 -2.301052 -12.348826 34.317025 5.803028 -17.486867 -1.785763 -0.007400 0.557200 -1.531200 3.007075 1.073025 -7.924563 -0.552259 0.709499 -1.053531 5.253761 -5.386809 23.047889 2.237800 -3.856000 15.531900 -85.634384 2.669258 41.168795 17.540706 -18.949720 -4.593856 -1.280016 1.073358 -7.193657 -7.125000 0.000000 0.000000 84.752606 -2.736163 38.695484 -19.421602 18.862455 -5.272718 2.387797 1.059313 9.928031 7.125000 0.000000 0.000000 
-2.618147 17.592277 45.601415 -174.855063 -7.820201 -162.797958 -7.567885 -16.786336 -25.381006 1.846645 12.056788 33.678778 -5.586619 16.720687 -6.200328 0.068800 1.692500 4.656600 22.451383 15.346517 -27.884661 -2.317739 -12.353984 34.353249 5.957769 -17.837992 -2.053678 -0.006700 0.528100 -1.451100 3.032850 0.902018 -7.741962 -0.475471 0.644962 -0.757727 5.179966 -5.408485 23.040631 2.186800 -3.844800 15.599300 -85.549226 2.417952 41.274090 17.637127 -19.059345 -4.626685 -1.267628 1.022755 -7.209546 -7.125000 0.000000 0.000000 84.665971 -2.441621 38.640028 -19.360548 18.789940 -5.254560 2.397965 1.063926 9.994015 7.125000 0.000000 0.000000 
-2.616977 17.592915 45.604605 -174.924193 -7.875299 -162.649737 -7.579336 -16.844400 -25.536808 1.838485 12.057577 33.640252 -5.576627 16.700279 -6.094446 0.075800 1.776100 4.887200 22.349247 15.391731 -28.030369 -2.316798 -12.360471 34.350302 5.965480 -17.857739 -2.081511 -0.007600 0.563600 -1.548800 3.154480 0.778301 -7.467182 -0.247641 0.614514 -0.097171 5.125035 -5.327606 22.852419 2.178400 -3.796600 15.501500 -85.605219 1.832743 41.145945 17.594114 -18.965767 -4.601106 -1.293514 1.042328 -7.149535 -7.125000 0.000000 0.000000 84.326029 -1.873794 38.762727 -19.284812 18.711656 -5.245068 2.411468 1.096729 9.939103 7.125000 0.000000 0.000000 
-2.616764 17.595361 45.606519 -174.972003 -7.959351 -162.494782 -7.574477 -16.860934 -25.727969 1.830682 12.064851 33.629102 -5.479462 16.480347 -6.018303 0.090600 1.941000 5.342800 22.286670 15.330153 -28.219094 -2.302452 -12.365437 34.365130 5.849599 -17.573499 -2.248504 -0.002200 0.305300 -0.838700 3.169109 0.727615 -7.401149 -0.180221 0.596674 0.123424 5.067755 -5.288077 22.769876 2.139700 -3.764000 15.446000 -85.539102 1.587355 41.328835 17.556201 -18.916937 -4.593530 -1.348633 1.064040 -7.174580 -7.125000 0.000000 0.000000 84.257348 -1.566880 38.701807 -19.190329 18.603856 -5.218331 2.423360 1.122777 9.934509 7.125000 0.000000 0.000000 
-2.618147 17.597488 45.604712 -174.979502 -8.000317 -162.441007 -7.568682 -16.848208 -25.794713 1.835247 12.074281 33.644794 -5.474890 16.471800 -5.996652 0.083500 1.863700 5.129100 22.275201 15.287870 -28.282125 -2.310479 -12.368094 34.341279 5.948840 -17.819835 -2.095795 -0.008100 0.582300 -1.600100 3.171948 0.697755 -7.381340 -0.177154 0.584137 0.182418 5.029396 -5.252231 22.782144 2.118900 -3.746000 15.470700 -85.485701 1.494428 41.398173 17.554733 -18.910680 -4.592575 -1.343813 1.064024 -7.143344 -7.125000 0.000000 0.000000 84.252658 -1.369687 38.700282 -19.102466 18.491697 -5.176709 2.427859 1.120702 9.903885 7.125000 0.000000 0.000000 
-2.625910 17.597169 45.608965 -174.860156 -7.618497 -162.348989 -7.513345 -16.801762 -25.863820 1.844750 12.089261 33.679987 -5.578562 16.722715 -6.244332 0.085300 1.883900 5.184800 22.301925 15.307830 -28.445661 -2.287920 -12.361043 34.320194 5.714838 -17.273391 -1.907738 -0.002800 0.340900 -0.936500 3.145565 0.878045 -7.444869 -0.268706 0.663462 0.062643 5.035437 -5.261525 22.833474 2.130800 -3.761900 15.515200 -85.510104 1.527846 41.319173 17.661638 -19.045711 -4.635971 -1.336694 1.029031 -7.270113 -7.125000 0.000000 0.000000 84.274949 -1.394227 38.734550 -19.107270 18.484135 -5.159931 2.421513 1.084848 9.943647 7.125000 0.000000 0.000000 
-2.632929 17.596318 45.611092 -174.696135 -7.229394 -162.356253 -7.450442 -16.615173 -25.882887 1.852563 12.101035 33.719652 -5.604984 16.786510 -6.404218 0.098300 2.021500 5.565000 22.406057 15.318055 -28.468965 -2.281191 -12.348992 34.276318 5.639662 -17.116230 -1.540794 -0.008400 0.591200 -1.624600 3.108869 1.098224 -7.534323 -0.386231 0.760418 -0.172766 5.067562 -5.317651 22.877510 2.151200 -3.797700 15.536200 -85.533788 1.653993 41.187580 17.701585 -19.099703 -4.650950 -1.329778 1.015921 -7.349391 -7.125000 0.000000 0.000000 84.391203 -1.572408 38.506706 -19.277904 18.702485 -5.254207 2.415428 1.161867 9.761500 7.125000 0.000000 0.000000 
